<svg xmlns="http://www.w3.org/2000/svg" width="350" viewBox="0 0 262.5 52.5" height="70" version="1.0"><defs><clipPath id="a"><path d="M9.906 0h92.121v52.004H9.907Zm0 0"/></clipPath><clipPath id="b"><path d="M17 2h78v50.004H17Zm0 0"/></clipPath><clipPath id="c"><path d="M82.934 14.043h139.441v37.96H82.934Zm0 0"/></clipPath><clipPath id="d"><path d="M84 14.043h126V35H84Zm0 0"/></clipPath></defs><g clip-path="url(#a)"><path fill="#fff" d="M9.906-8.04h92.121v92.126H9.907Zm0 0"/></g><g clip-path="url(#b)"><path fill="#754c29" d="M64.262 35.281s-.453.14-.977.14c-.523 0-.64-.175-.695-.304-.05-.125.21-.558.738-.558.602 0 .863.453.934.722Zm1.41-1.894c.277-.637.363-.692.484-.692s.649.364.649.649c0 .285-.387.879-1.395 1.472 0 0-.015-.796.262-1.43Zm-5.992-9.133s-.68-.625-1.375-.996c-.692-.375-.696-.406-.696-.508 0-.063.02-.469 1.43-.469.738 0 1.469.024 2.078.051.172.273.313.54.438.8-.57.305-1.266.688-1.875 1.122Zm-.442 8.469c-1.55-.325-2.355-1.707-2.355-2.973 0-1.535.617-2.57.984-3.074.969.457 2.203.52 3.133.554.375.016.742.02 1.09.032-.172 1.047-.594 2.207-1.485 3.515-.453.664-.933 1.305-1.367 1.946Zm.719-.27c.762-1.05 1.988-2.754 2.41-5.18.305.016.602.04.88.079.323.043.62.12.91.218.882.297 1.116.89 1.116 1.356 0 .3-.066.683-.242 1.078a3.34 3.34 0 0 1-.691.957c-.692.676-1.082.86-1.32 1.012-.243.152-1.555.82-3.086.82-.079 0-.153-.004-.227-.008l.25-.332Zm1.824-10.082c.563.04.918.078.918.102-.008.058-.281.207-.695.425a8.228 8.228 0 0 0-.223-.527Zm.043 1.434c.281.812.367 1.566.367 2.199 0 .11-.004.219-.007.328-.16-.004-.329-.008-.512-.008-2.102 0-2.746-.11-3.328-.265 0 0 .55-.672 1.3-1.122 0 0 .262.223.567.586 0 0 .035-.253.023-.628l-.156-.204s.645-.402 1.746-.886ZM46.582 34.816c-1.008-.593-1.395-1.187-1.395-1.472 0-.285.528-.649.649-.649.125 0 .207.055.488.692.278.633.258 1.43.258 1.43Zm1.148.465c.07-.27.333-.722.934-.722.527 0 .79.433.738.558-.054.13-.172.305-.695.305-.523 0-.977-.14-.977-.14Zm4.586-11.027c-.613-.434-1.308-.817-1.875-1.121.121-.262.266-.528.434-.801.61-.027 1.34-.05 2.078-.05 1.41 0 1.434.405 1.434.468 0 .102-.008.133-.703.508-.692.37-1.368.996-1.368.996Zm-3.023-1.781c0-.024.355-.063.918-.102a8.228 8.228 0 0 0-.223.527c-.414-.218-.687-.367-.695-.425Zm1.027 3.851c-.183 0-.351.004-.511.008-.004-.11-.008-.219-.008-.328 0-.633.086-1.387.367-2.2 1.102.485 1.746.887 1.746.887l-.156.204c-.012.375.023.628.023.628.305-.363.567-.585.567-.585.75.449 1.3 1.12 1.3 1.12-.582.157-1.226.266-3.328.266Zm1.965 6.461c-.074.004-.148.008-.226.008-1.532 0-2.844-.668-3.086-.82-.239-.153-.63-.336-1.32-1.012a3.34 3.34 0 0 1-.692-.957 2.704 2.704 0 0 1-.242-1.078c0-.465.234-1.059 1.117-1.356.289-.097.586-.175.91-.218.277-.04.574-.063.879-.079.422 2.426 1.652 4.13 2.41 5.18l.25.332Zm-.898-2.008c-.89-1.308-1.313-2.468-1.485-3.515.348-.012.715-.016 1.09-.032.93-.035 2.164-.097 3.133-.554a5.15 5.15 0 0 1 .984 3.074c0 1.266-.804 2.648-2.351 2.973-.438-.641-.918-1.282-1.371-1.946Zm4.61 10.157c-7.65 0-13.849-5.852-13.849-13.075 0-6.015 4.243-9.457 5.27-10.257.805-.63 2.082-1.461 3.7-2.258.444.37 1.03.8 1.788 1.281.762.48 1.453.879 2.094 1.227-.969.527-1.465.878-2.25 1.41-.492.332-1.305 1.07-1.996 2.136-1.89.16-3.57.434-3.594.457-.031.032-.008.727.055.813.066.086.52.172 2.12.793.145.055.278.11.411.164a7.367 7.367 0 0 0-.266 1.95c0 .26.012.519.032.773-1.551.086-2.051.422-2.375.675-1.047.813-1.27 3.711 1.187 5.364 1.86 1.254 3.535 1.484 4.633 1.289.543.758.973 1.543.973 2.574 0 1.602-1.567 2.102-2.61 2.102-1.472 0-2.488-.664-3.03-1.286-.45-.511-.563-1.015-.563-1.015s.312.094.726.086c1.442-.028 1.332-1.07 1.332-1.184 0-.11 0-.93-1.058-.93-1.141 0-1.387 1.133-1.387 1.133a2.836 2.836 0 0 1-.582-.25s.097-.578.097-.93c0-1.55-.8-2.273-.894-2.273-.082 0-1.219.547-1.106 1.89.145 1.747 2.45 2.352 2.45 2.352.566 2.594 3.28 3.172 4.304 3.172 1.024 0 2.547-.48 2.547-2.867 0-.926-.347-1.797-.847-2.656a2.4 2.4 0 0 0 .511-.215c.907-.531 1.578-1.676 1.578-3.488 0-.957-.097-1.61-.296-2.203-.23-.68-.582-1.227-.582-1.227.69-.441 1.144-1.098 1.144-1.098l.035-.633c-.68.86-1.586 1.149-1.586 1.149a8.629 8.629 0 0 0-1.332-1.305c.653-.512 1.219-.722 1.625-.992.348-.23.469-1.223.496-1.441.028-.192-.03-.305-.113-.434-.086-.129-.352-.418-1.676-.418-.48 0-.992.02-1.508.05.176-.206.368-.413.575-.616.511-.5 1.472-1.098 2.312-1.555.469-.25.965-.504 1.504-.785.54.281 1.035.535 1.504.785.844.457 1.8 1.055 2.313 1.555.207.203.398.41.574.617a25.246 25.246 0 0 0-1.508-.05c-1.324 0-1.59.288-1.676.417-.082.129-.14.242-.113.434.027.218.148 1.21.496 1.441.406.27.977.48 1.625.992 0 0-.691.52-1.328 1.305 0 0-.91-.29-1.586-1.149l.031.633s.457.657 1.145 1.098c0 0-.352.547-.582 1.227-.2.593-.297 1.246-.297 2.203 0 1.812.672 2.957 1.578 3.488a2.4 2.4 0 0 0 .512.215c-.5.86-.848 1.73-.848 2.656 0 2.387 1.523 2.867 2.547 2.867 1.023 0 3.738-.578 4.304-3.172 0 0 2.305-.605 2.45-2.351.113-1.344-1.024-1.89-1.102-1.89-.097 0-.898.722-.898 2.273 0 .351.097.93.097.93s-.246.148-.582.25c0 0-.246-1.134-1.39-1.134-1.055 0-1.055.82-1.055.93 0 .113-.11 1.156 1.332 1.184.414.008.727-.086.727-.086s-.114.504-.563 1.015c-.543.621-1.558 1.286-3.031 1.286-1.043 0-2.61-.5-2.61-2.102 0-1.031.43-1.816.973-2.574 1.098.195 2.774-.035 4.633-1.29 2.457-1.652 2.234-4.55 1.187-5.363-.324-.253-.824-.59-2.375-.675.02-.254.032-.512.032-.774 0-.699-.102-1.347-.266-1.949.133-.055.266-.11.41-.164 1.602-.621 2.055-.707 2.121-.793.063-.086.086-.781.055-.813-.023-.023-1.703-.296-3.594-.457-.691-1.066-1.504-1.804-1.996-2.136-.785-.532-1.281-.883-2.25-1.41.64-.348 1.332-.747 2.094-1.227.758-.48 1.34-.91 1.789-1.277 1.613.793 2.89 1.625 3.7 2.254 1.023.8 5.265 4.242 5.265 10.257 0 7.223-6.2 13.075-13.844 13.075Zm-3.5-26.22c1.366-.577 3.5-1.491 3.5-1.491s2.128.914 3.495 1.492c.219.094.434.187.64.281a19.317 19.317 0 0 1-2.886 1.727c-.48.226-.89.43-1.25.609-.36-.18-.77-.383-1.25-.61a19.542 19.542 0 0 1-2.89-1.726c.21-.094.421-.191.64-.281Zm15.648 5.735c-1.266-1.937-3.075-3.648-5.27-4.976a15.824 15.824 0 0 0-1.344-.711c.528-.512.692-.809.692-.809l.175-1.219c-.308.563-.875 1.149-1.55 1.711-1.301-.59-2.785-1.187-3.942-1.672 1.489-.84 2.008-1.503 2.008-1.503l.008-.735c-1.649 1.367-2.926 1.867-2.926 1.867s-1.281-.5-2.93-1.867l.008.735s.52.664 2.008 1.503c-1.152.485-2.64 1.082-3.941 1.672-.672-.562-1.239-1.148-1.547-1.71l.176 1.218s.164.293.69.809c-.51.246-.976.484-1.347.71-2.195 1.329-4.004 3.04-5.265 4.977-1.266 1.938-1.989 3.914-1.989 7.145 0 7.683 6.328 13.914 14.133 13.914h.004c7.805 0 14.133-6.23 14.133-13.914 0-3.23-.723-5.207-1.984-7.145ZM56.656 34.73l.754.54.215-.84-.742-.54Zm9.274-12.632-.145.96c.52.372 1.367 1.41 1.367 3.114 0 .601-.086 1.129-.086 1.129l.121.023s.215-1.054.215-1.695c0-.64.07-2.402-1.472-3.531ZM54.367 34.43l.215.84.754-.54-.227-.84Zm-9.527-8.258c0-1.703.847-2.742 1.367-3.113l-.145-.961c-1.542 1.129-1.472 2.89-1.472 3.53 0 .642.219 1.696.219 1.696l.117-.023s-.086-.528-.086-1.13Zm27.726 5.656v.004c-.304 1.098-.73 3.316-.464 4.867-1.477.543-3.184 2.024-3.985 2.836-.812.8-2.293 2.508-2.836 3.985-1.55-.266-3.77.16-4.867.464-1.105.286-3.242 1.028-4.45 2.032-1.21-1.004-3.347-1.746-4.448-2.032-1.098-.304-3.32-.73-4.868-.464-.546-1.477-2.027-3.184-2.84-3.985-.796-.812-2.507-2.293-3.98-2.836.266-1.55-.164-3.77-.465-4.867v-.004c-.289-1.101-1.027-3.238-2.031-4.445 1.004-1.211 1.742-3.348 2.031-4.45.301-1.097.73-3.32.465-4.867 1.473-.546 3.184-2.027 3.98-2.836v-.003c.813-.797 2.294-2.508 2.84-3.98 1.547.265 3.77-.165 4.868-.466 1.101-.289 3.238-1.027 4.449-2.031 1.207 1.004 3.344 1.742 4.45 2.031 1.097.301 3.315.73 4.866.465.543 1.473 2.024 3.184 2.836 3.98v.004c.801.81 2.508 2.29 3.985 2.836-.266 1.547.16 3.77.464 4.868.286 1.101 1.028 3.238 2.032 4.449-1.004 1.207-1.746 3.344-2.032 4.445Zm5.84-6.223c-.363 0-.64.2-.64.2s.113-.188.113-.473c0-.223-.2-.871-.848-.871-.14 0-.203.027-.191.082.008.059.215.148.215.469 0 .32-.2.504-.336.648-.137.145-.39.387-.328 1.082-.297 0-.782-.148-1.09-.578-.754-1.05-1.371-2.898-1.57-3.543-.149-.66-.54-2.566-.41-3.855.05-.524.398-.895.652-1.043.297.632.636.715.824.773.191.055.457.117.617.39.16.282.027.462.047.516.02.055.086.047.207-.023.562-.324.41-.984.3-1.18a1.037 1.037 0 0 0-.335-.355s.344.035.656-.145c.793-.457.445-1.12.914-2.578-1.496-.324-1.898-.957-2.691-.5-.313.184-.453.496-.453.496s0-.222-.141-.469c-.11-.191-.61-.652-1.172-.328-.121.067-.16.121-.125.164.04.047.262.024.422.301.16.277.082.535.035.73-.047.192-.144.528.254 1.098a1.41 1.41 0 0 1-1.23.047c-1.18-.531-2.637-1.824-3.13-2.285-.46-.496-1.753-1.953-2.284-3.133a1.399 1.399 0 0 1 .042-1.23c.575.402.91.3 1.102.258.191-.047.453-.13.73.03.278.16.25.387.297.423.043.035.098-.004.168-.125.325-.559-.136-1.059-.332-1.168-.246-.145-.465-.14-.465-.14s.313-.142.493-.454c.46-.797-.172-1.2-.496-2.691-1.457.464-2.122.117-2.579.914-.183.312-.148.652-.148.652s-.105-.191-.352-.332c-.195-.113-.855-.262-1.18.297-.07.12-.077.191-.027.207.059.023.239-.11.516.05s.336.426.395.614c.054.191.136.531.773.824-.148.258-.52.602-1.047.656-1.285.13-3.195-.261-3.851-.414-.649-.199-2.497-.812-3.547-1.57a1.411 1.411 0 0 1-.575-1.086c.696.059.938-.191 1.079-.328.144-.137.328-.336.648-.336s.41.203.473.215c.054.008.082-.051.082-.192 0-.648-.649-.847-.875-.847-.282 0-.473.11-.473.11s.203-.278.203-.641c0-.915-.75-.946-1.777-2.079-1.028 1.133-1.778 1.164-1.778 2.079 0 .363.204.64.204.64s-.192-.11-.477-.11c-.223 0-.871.2-.871.848 0 .141.027.2.082.192.059-.012.148-.215.469-.215.32 0 .504.2.648.336.145.137.387.387 1.082.328 0 .293-.148.777-.578 1.086-1.05.758-2.898 1.371-3.543 1.57-.656.153-2.566.543-3.855.414a1.412 1.412 0 0 1-1.043-.656c.633-.293.715-.633.773-.824.055-.188.117-.453.395-.613.273-.16.457-.028.511-.051.055-.016.047-.086-.023-.207-.324-.559-.984-.41-1.18-.297-.246.14-.355.332-.355.332s.039-.34-.145-.652c-.457-.797-1.12-.45-2.578-.914-.324 1.492-.957 1.894-.5 2.69.184.313.496.454.496.454s-.222-.004-.469.14c-.19.11-.652.61-.328 1.169.07.12.125.16.168.125.043-.04.02-.262.297-.422.278-.16.535-.078.73-.031.192.043.528.144 1.098-.258.149.258.262.75.047 1.23-.531 1.18-1.824 2.637-2.285 3.133-.496.46-1.95 1.754-3.133 2.285a1.41 1.41 0 0 1-1.23-.047c.402-.57.304-.906.258-1.097-.047-.196-.13-.454.03-.73.161-.278.384-.255.423-.302.035-.043-.004-.097-.125-.164-.559-.324-1.059.137-1.168.328-.145.247-.14.47-.14.47s-.142-.313-.454-.497c-.797-.457-1.2.176-2.691.5.464 1.457.12 2.121.914 2.578.312.18.656.145.656.145s-.195.11-.336.355c-.113.196-.262.856.297 1.18.12.07.191.078.21.023.02-.054-.113-.234.048-.515.16-.274.425-.336.613-.39.191-.06.531-.142.824-.774a1.4 1.4 0 0 1 .656 1.043c.13 1.289-.261 3.195-.414 3.855-.195.645-.812 2.492-1.57 3.543a1.4 1.4 0 0 1-1.086.578c.063-.695-.191-.937-.328-1.082-.137-.144-.336-.328-.336-.648s.203-.41.215-.469c.012-.055-.05-.082-.192-.082-.648 0-.847.648-.847.871 0 .285.11.473.11.473s-.278-.2-.641-.2c-.915 0-.946.75-2.079 1.778 1.133 1.027 1.164 1.777 2.079 1.777.363 0 .64-.203.64-.203s-.11.191-.11.473c0 .226.2.875.848.875.141 0 .204-.028.192-.082-.012-.063-.215-.153-.215-.473 0-.32.2-.504.336-.648.137-.145.39-.383.328-1.079.297 0 .777.149 1.086.575.758 1.05 1.375 2.898 1.57 3.543.153.66.543 2.566.414 3.855-.05.527-.398.895-.656 1.043-.293-.633-.633-.715-.824-.77-.188-.058-.453-.117-.613-.394-.16-.277-.028-.457-.047-.516-.02-.05-.09-.043-.211.028-.559.324-.41.984-.297 1.18.14.245.336.351.336.351s-.344-.035-.656.148c-.793.457-.45 1.121-.914 2.579 1.492.324 1.894.957 2.691.5.312-.184.453-.497.453-.497s-.004.22.14.465c.11.196.61.657 1.169.332.12-.07.16-.125.125-.168-.04-.047-.262-.02-.422-.297-.16-.277-.078-.539-.031-.73.046-.195.144-.527-.258-1.102.258-.148.75-.261 1.23-.043 1.184.532 2.637 1.825 3.133 2.282.461.496 1.754 1.953 2.285 3.133.215.48.102.976-.047 1.23-.57-.398-.906-.3-1.097-.254-.196.047-.453.125-.73-.035-.278-.16-.255-.383-.298-.422-.043-.035-.097.004-.168.125-.324.563.137 1.059.328 1.172.247.144.47.14.47.14s-.313.141-.497.454c-.457.793.176 1.195.5 2.691 1.457-.469 2.121-.121 2.578-.914.184-.316.145-.656.145-.656s.11.191.355.336c.196.11.856.261 1.18-.301.07-.121.078-.188.023-.207-.054-.02-.238.113-.511-.047-.278-.16-.34-.426-.395-.617-.058-.188-.14-.528-.773-.824.148-.254.52-.602 1.043-.653 1.289-.129 3.199.262 3.855.41.645.2 2.492.817 3.543 1.57.43.31.578.794.578 1.09-.695-.062-.937.192-1.082.329-.144.136-.328.336-.648.336s-.41-.207-.469-.215c-.055-.012-.082.05-.082.191 0 .649.648.848.871.848.285 0 .477-.113.477-.113s-.203.277-.203.64c0 .918.75.95 1.777 2.082 1.027-1.133 1.777-1.164 1.777-2.082 0-.363-.203-.64-.203-.64s.191.113.473.113c.226 0 .875-.2.875-.848 0-.14-.028-.203-.082-.191-.063.008-.153.215-.473.215-.32 0-.504-.2-.648-.336-.141-.137-.383-.39-1.079-.328 0-.297.149-.782.575-1.09 1.05-.754 2.898-1.371 3.547-1.57.656-.149 2.566-.54 3.851-.41.527.05.899.398 1.047.652-.637.297-.719.636-.773.824-.059.191-.118.457-.395.617-.277.16-.457.027-.516.047-.05.02-.043.086.028.207.324.562.984.41 1.18.3.246-.144.351-.335.351-.335s-.035.34.148.656c.457.793 1.122.445 2.579.914.324-1.496.957-1.898.496-2.691-.18-.313-.493-.453-.493-.453s.22 0 .465-.141c.196-.113.657-.61.332-1.172-.07-.121-.125-.16-.168-.125-.046.04-.02.262-.296.422-.278.16-.54.082-.731.035-.191-.047-.527-.144-1.102.254a1.398 1.398 0 0 1-.043-1.23c.532-1.18 1.825-2.637 2.286-3.133.492-.457 1.949-1.75 3.129-2.282.48-.218.976-.105 1.23.043-.398.575-.3.907-.254 1.102.047.191.125.453-.035.73-.16.278-.383.25-.422.297-.035.043.004.098.125.168.563.325 1.063-.136 1.172-.332.144-.246.14-.465.14-.465s.141.313.454.497c.793.457 1.195-.176 2.691-.5-.469-1.458-.121-2.122-.914-2.579-.312-.183-.656-.148-.656-.148s.191-.105.336-.352c.11-.195.261-.855-.301-1.18-.121-.07-.188-.077-.207-.027-.02.059.113.239-.047.516s-.426.336-.617.395c-.188.054-.527.136-.824.77a1.401 1.401 0 0 1-.653-1.044c-.129-1.289.262-3.195.41-3.855.2-.645.817-2.493 1.57-3.543a1.412 1.412 0 0 1 1.09-.575c-.062.696.192.934.329 1.079.136.144.336.328.336.648s-.207.41-.215.473c-.012.054.05.082.191.082.649 0 .848-.649.848-.875 0-.282-.113-.473-.113-.473s.277.203.64.203c.918 0 .95-.75 2.082-1.777-1.133-1.028-1.164-1.778-2.082-1.778Zm15.946 39.633c-.032.117-.059.219-.086.313-.028.09-.051.191-.079.297-.027.105-.062.23-.097.37a6.81 6.81 0 0 0-.13.66h-5.995v-.331c.152 0 .293-.016.418-.04a.775.775 0 0 0 .324-.148.721.721 0 0 0 .203-.304c.047-.133.07-.305.07-.52v-5.398c0-.192-.023-.34-.07-.453a.498.498 0 0 0-.2-.243.815.815 0 0 0-.32-.101 3.634 3.634 0 0 0-.425-.024v-.273h5.43l.035 1.59-.196.023c-.039-.457-.207-.785-.507-.984-.297-.2-.68-.297-1.145-.297H90.02v3.21h1.718a.867.867 0 0 0 .422-.089.65.65 0 0 0 .23-.23.98.98 0 0 0 .094-.309c.016-.113.024-.223.024-.328h.258v2.434h-.258c0-.153-.004-.297-.016-.426a.669.669 0 0 0-.11-.328.562.562 0 0 0-.277-.204 1.534 1.534 0 0 0-.523-.07H90.02v2.473c0 .23.035.414.101.555.07.136.164.242.281.312.118.07.254.121.41.145.157.027.32.039.5.039.106 0 .25-.004.43-.004.18-.008.367-.016.563-.028.195-.011.379-.027.554-.05.172-.024.301-.055.387-.098.234-.117.414-.281.543-.48.133-.204.254-.434.367-.692ZM81.73 63.551h2.793v.242c-.132 0-.246.008-.34.023a.675.675 0 0 0-.25.086.342.342 0 0 0-.148.192 1.06 1.06 0 0 0-.047.351v2.04c-.324.117-.644.21-.957.28a11.21 11.21 0 0 1-1.633.254c-.218.02-.386.028-.503.028-.7 0-1.31-.125-1.829-.375-.515-.25-.949-.57-1.293-.961a3.956 3.956 0 0 1-.777-1.309c-.168-.48-.25-.949-.25-1.406 0-.539.106-1.055.32-1.555.215-.496.512-.933.895-1.312s.84-.68 1.371-.906a4.463 4.463 0 0 1 1.758-.34c.312 0 .613.02.894.062.282.043.543.09.79.153a8.681 8.681 0 0 1 1.214.37l.157 1.536h-.204a4.6 4.6 0 0 0-.16-.543c-.07-.203-.23-.41-.472-.61a2.566 2.566 0 0 0-.95-.492 3.974 3.974 0 0 0-1.082-.144c-.484 0-.93.086-1.34.254-.41.168-.761.406-1.062.715-.3.312-.531.683-.695 1.117-.168.433-.25.918-.25 1.453 0 .566.09 1.086.265 1.57.18.485.422.906.735 1.258.308.356.675.633 1.093.832.418.203.872.3 1.356.3.16 0 .383-.023.664-.073.281-.051.582-.176.906-.368v-1.648c0-.2-.023-.355-.062-.46a.577.577 0 0 0-.176-.25.58.58 0 0 0-.293-.102 4.607 4.607 0 0 0-.438-.02Zm-13.476-.031 1.117-3.391 1.168 3.39Zm4.73 3.058a.72.72 0 0 1-.27-.242 2.68 2.68 0 0 1-.265-.504c-.09-.21-.195-.488-.316-.824l-2.219-6.313-.828.64v.083c0 .16-.012.316-.035.469a2.188 2.188 0 0 1-.13.472l-1.741 4.836a5.58 5.58 0 0 1-.32.754c-.102.192-.2.336-.301.438a.767.767 0 0 1-.332.203 1.753 1.753 0 0 1-.426.047v.242h2.66v-.242H68c-.176 0-.313-.043-.41-.13a.439.439 0 0 1-.145-.343 1.237 1.237 0 0 1 .059-.36l.61-1.835h2.585l.692 1.93a.388.388 0 0 1 .039.128c.011.059.02.121.02.184 0 .144-.044.254-.13.32a.517.517 0 0 1-.343.106h-.336v.242h2.921v-.242h-.23a.91.91 0 0 1-.348-.059Zm-12.507-7.535h2.453v.242c-.153 0-.278.02-.38.059a.486.486 0 0 0-.241.218 1.232 1.232 0 0 0-.133.442 5.381 5.381 0 0 0-.043.742v3.535c0 .547-.098 1-.293 1.356a2.436 2.436 0 0 1-.735.847 2.731 2.731 0 0 1-.988.43c-.363.082-.71.121-1.039.121-.437 0-.84-.05-1.207-.16a2.62 2.62 0 0 1-.945-.488 2.262 2.262 0 0 1-.625-.864c-.149-.351-.223-.777-.223-1.277v-4.164c0-.191-.016-.34-.05-.445a.469.469 0 0 0-.15-.235.49.49 0 0 0-.253-.097 3.193 3.193 0 0 0-.355-.02v-.242h2.738v.242c-.145 0-.274.008-.387.024a.484.484 0 0 0-.277.129.64.64 0 0 0-.168.312c-.04.145-.059.332-.059.574v3.68c0 .36.047.7.137 1.02.094.316.234.593.422.828.191.234.433.421.726.558.297.14.649.207 1.059.207.738 0 1.277-.203 1.621-.61.34-.405.508-.96.508-1.667v-3.211c0-.457-.008-.813-.031-1.063-.024-.25-.07-.43-.149-.546a.444.444 0 0 0-.336-.204 4.741 4.741 0 0 0-.597-.03Zm-10.254 5.57a3.399 3.399 0 0 1-.547 1.09c-.23.305-.52.547-.856.723-.34.18-.715.265-1.125.265-.457 0-.879-.113-1.254-.34a3.3 3.3 0 0 1-.972-.906 4.399 4.399 0 0 1-.63-1.297 5.136 5.136 0 0 1-.222-1.503c0-.372.047-.758.137-1.168.094-.407.25-.778.469-1.118.222-.34.511-.617.87-.84.36-.218.81-.328 1.337-.328.445 0 .855.114 1.222.344.371.227.684.528.942.903.258.378.46.808.605 1.296.145.489.219.993.219 1.504 0 .492-.066.95-.195 1.375Zm.168-4.59a4.092 4.092 0 0 0-4.418-.855c-.496.207-.93.492-1.305.855a4.28 4.28 0 0 0-.898 1.282 3.793 3.793 0 0 0-.34 1.605c0 .508.093 1.008.277 1.5.184.492.457.93.816 1.317.36.39.797.703 1.313.941.516.238 1.105.355 1.766.355.484 0 .964-.097 1.437-.296.477-.2.902-.477 1.29-.832.382-.352.69-.782.921-1.286.234-.504.348-1.066.348-1.687a4.01 4.01 0 0 0-1.207-2.898Zm-10.946 6.59c.153.016.313.024.489.024v.242H36.48v-.242c.215 0 .399-.016.547-.043a.748.748 0 0 0 .356-.16c.094-.082.16-.2.199-.352.04-.156.059-.355.059-.61l-.075-5.054h-.023l-3.254 6.46h-.23c-.07-.179-.133-.339-.192-.48l-.176-.425c-.062-.145-.129-.301-.207-.465-.078-.164-.164-.36-.257-.578l-1.985-4.375-.324 5.03c-.004.056-.008.106-.008.157 0 .168.02.305.059.414.05.14.125.246.222.317.098.07.211.113.344.132.137.02.285.032.445.032v.242h-2.898v-.242c.16 0 .316-.012.469-.035a.92.92 0 0 0 .422-.176c.125-.094.23-.23.316-.418.082-.188.14-.442.172-.758l.387-4.371c.015-.184.027-.336.039-.45.011-.117.015-.195.015-.238 0-.203-.02-.363-.062-.48a.616.616 0 0 0-.188-.281.687.687 0 0 0-.336-.121 4.318 4.318 0 0 0-.484-.024v-.242h1.902c.13.309.235.547.313.723.074.172.137.316.183.433.047.117.094.223.141.317l.164.363 2.055 4.57 2.422-4.773a22.23 22.23 0 0 0 .453-.93c.055-.121.101-.234.144-.34.043-.101.09-.222.145-.363h1.914v.242c-.113 0-.23.008-.352.02a.826.826 0 0 0-.324.097.577.577 0 0 0-.23.243c-.055.109-.082.261-.082.46v5.168c.008.336.043.598.105.786.067.183.153.316.266.402a.776.776 0 0 0 .394.152ZM20.04 63.52l1.113-3.391 1.172 3.39Zm4.73 3.058a.7.7 0 0 1-.273-.242 2.93 2.93 0 0 1-.266-.504c-.085-.21-.19-.488-.316-.824l-2.219-6.313-.824.64v.083c0 .16-.012.316-.035.469a2 2 0 0 1-.133.472l-1.738 4.836a5.527 5.527 0 0 1-.324.754c-.098.192-.2.336-.301.438a.746.746 0 0 1-.332.203 1.73 1.73 0 0 1-.426.047v.242h2.664v-.242h-.46c-.18 0-.317-.043-.411-.13a.427.427 0 0 1-.145-.343 1.236 1.236 0 0 1 .06-.36l.605-1.835h2.585l.692 1.93a.372.372 0 0 1 .043.128.945.945 0 0 1 .015.184c0 .144-.043.254-.125.32a.528.528 0 0 1-.347.106h-.336v.242h2.922v-.242h-.23a.876.876 0 0 1-.344-.059"/></g><g clip-path="url(#c)"><path fill="#fff" d="M72.305-88.242h150.07v150.07H72.305Zm0 0"/></g><g clip-path="url(#d)"><path fill="#754c29" d="M160.852-17.672s-.739.23-1.59.23c-.852 0-1.043-.285-1.133-.495-.086-.208.34-.915 1.203-.915.98 0 1.406.735 1.52 1.18Zm2.296-3.09c.45-1.035.59-1.12.79-1.12.199 0 1.058.589 1.058 1.054 0 .465-.633 1.43-2.273 2.394 0 0-.028-1.293.425-2.328Zm-9.761-14.879s-1.106-1.011-2.235-1.62c-1.132-.606-1.14-.66-1.14-.825 0-.105.035-.766 2.332-.766 1.203 0 2.394.036 3.386.086.278.442.508.875.708 1.305-.926.492-2.055 1.117-3.051 1.82Zm-.719 13.801c-2.527-.527-3.836-2.785-3.836-4.844 0-2.5 1-4.187 1.602-5.007 1.578.742 3.59.843 5.101.902.617.023 1.211.035 1.781.055-.28 1.703-.968 3.59-2.418 5.722-.738 1.082-1.523 2.13-2.23 3.172Zm1.168-.445c1.242-1.707 3.246-4.485 3.93-8.43.496.024.98.059 1.433.121.528.074 1.008.2 1.48.356 1.442.488 1.821 1.457 1.821 2.215 0 .488-.105 1.113-.39 1.75-.255.558-.68 1.12-1.13 1.558-1.128 1.106-1.761 1.402-2.152 1.649-.394.25-2.531 1.34-5.027 1.34-.125 0-.246-.004-.367-.012.132-.18.27-.364.402-.547Zm2.973-16.418c.918.062 1.5.129 1.496.164-.012.098-.457.34-1.13.691a11.986 11.986 0 0 0-.366-.855Zm.07 2.332a10.97 10.97 0 0 1 .601 3.586c0 .176-.007.355-.011.535-.262-.008-.54-.012-.832-.012-3.426 0-4.477-.183-5.426-.437 0 0 .894-1.094 2.121-1.824 0 0 .426.367.922.957 0 0 .055-.418.039-1.028 0 0-.152-.199-.258-.328 0 0 1.05-.66 2.844-1.45Zm-24.824 17.937c-1.645-.964-2.274-1.93-2.274-2.394 0-.465.856-1.055 1.055-1.055.2 0 .34.086.793 1.121s.426 2.328.426 2.328Zm1.87.762c.114-.445.536-1.18 1.516-1.18.864 0 1.29.707 1.204.915-.09.21-.278.496-1.133.496-.852 0-1.586-.23-1.586-.23Zm7.466-17.969c-1-.703-2.13-1.328-3.055-1.82.2-.43.434-.863.707-1.305.996-.05 2.184-.086 3.39-.086 2.294 0 2.329.66 2.329.766 0 .164-.008.219-1.14.824-1.13.61-2.231 1.621-2.231 1.621Zm-4.922-2.898c-.004-.035.578-.102 1.496-.164-.13.277-.254.562-.367.855-.668-.351-1.118-.593-1.13-.691Zm1.672 6.277c-.297 0-.575.004-.832.012a10.956 10.956 0 0 1 .586-4.121c1.792.789 2.843 1.45 2.843 1.45-.105.128-.258.327-.258.327a7.31 7.31 0 0 0 .04 1.028c.496-.59.921-.957.921-.957 1.227.73 2.121 1.824 2.121 1.824-.949.254-2 .437-5.421.437Zm3.203 10.524a5.886 5.886 0 0 1-.371.011c-2.496 0-4.633-1.09-5.024-1.34-.394-.245-1.027-.542-2.156-1.648-.45-.437-.875-1-1.125-1.558a4.306 4.306 0 0 1-.39-1.75c0-.758.374-1.727 1.82-2.215a8.24 8.24 0 0 1 1.476-.356c.457-.062.938-.097 1.438-.12.68 3.944 2.683 6.722 3.925 8.429.133.183.27.367.407.547Zm-1.469-3.274c-1.45-2.133-2.137-4.02-2.414-5.722.57-.02 1.164-.032 1.777-.055 1.516-.059 3.524-.16 5.102-.902.601.82 1.605 2.507 1.605 5.007 0 2.059-1.312 4.317-3.836 4.844-.707-1.043-1.496-2.09-2.234-3.172Zm7.508 16.543c-12.453 0-22.555-9.531-22.555-21.293 0-9.8 6.914-15.41 8.582-16.71 1.313-1.028 3.395-2.383 6.028-3.676.73.601 1.68 1.304 2.917 2.082a64.02 64.02 0 0 0 3.407 2c-1.575.855-2.383 1.433-3.66 2.296-.805.543-2.13 1.743-3.254 3.485-3.078.258-5.82.703-5.856.738-.05.05-.012 1.188.09 1.324.106.141.848.285 3.457 1.293.23.09.453.176.668.266-.27.98-.434 2.039-.434 3.176 0 .43.02.851.051 1.261-2.527.141-3.34.688-3.87 1.098-1.704 1.328-2.063 6.047 1.933 8.742 3.031 2.04 5.761 2.414 7.547 2.098.886 1.234 1.59 2.512 1.59 4.195 0 2.61-2.555 3.426-4.25 3.426-2.407 0-4.06-1.086-4.942-2.098-.73-.832-.914-1.656-.914-1.656s.508.156 1.18.145c2.351-.047 2.172-1.746 2.172-1.93 0-.184 0-1.512-1.723-1.512-1.86 0-2.258 1.84-2.258 1.84-.55-.164-.95-.406-.95-.406s.157-.938.157-1.512c0-2.531-1.305-3.703-1.46-3.703-.13 0-1.981.887-1.798 3.078.235 2.848 3.989 3.832 3.989 3.832.925 4.223 5.347 5.164 7.015 5.164 1.668 0 4.145-.785 4.145-4.668 0-1.508-.563-2.926-1.38-4.328.325-.094.602-.215.833-.348 1.476-.87 2.574-2.73 2.574-5.687 0-1.555-.16-2.617-.488-3.59-.371-1.105-.946-1.996-.946-1.996 1.125-.719 1.868-1.785 1.868-1.785l.054-1.035c-1.105 1.402-2.586 1.87-2.586 1.87a14.231 14.231 0 0 0-2.164-2.124c1.059-.828 1.985-1.176 2.645-1.613.57-.375.762-1.997.808-2.352.043-.309-.046-.496-.187-.703-.14-.211-.57-.684-2.727-.684-.785 0-1.62.032-2.453.082.285-.336.594-.668.934-1.004.832-.816 2.394-1.789 3.766-2.527.761-.414 1.574-.828 2.449-1.285.879.457 1.687.871 2.453 1.285 1.367.738 2.93 1.711 3.762 2.527.34.336.648.668.937 1.004a41.064 41.064 0 0 0-2.457-.082c-2.156 0-2.586.473-2.727.684-.136.207-.23.394-.187.703.047.355.238 1.977.809 2.352.66.437 1.59.785 2.648 1.613 0 0-1.125.847-2.168 2.125 0 0-1.48-.469-2.582-1.871l.05 1.035s.743 1.066 1.868 1.785c0 0-.57.89-.945 1.996-.328.973-.489 2.035-.489 3.59 0 2.957 1.098 4.816 2.575 5.687.23.133.507.254.832.348-.817 1.402-1.38 2.82-1.38 4.328 0 3.883 2.477 4.668 4.145 4.668 1.668 0 6.09-.941 7.016-5.164 0 0 3.754-.984 3.992-3.832.18-2.191-1.672-3.078-1.8-3.078-.157 0-1.462 1.172-1.462 3.703 0 .574.157 1.512.157 1.512s-.399.242-.946.406c0 0-.402-1.84-2.261-1.84-1.723 0-1.723 1.328-1.723 1.512 0 .184-.18 1.883 2.172 1.93.672.011 1.18-.145 1.18-.145s-.184.824-.915 1.656c-.882 1.012-2.535 2.098-4.937 2.098-1.695 0-4.254-.816-4.254-3.426 0-1.683.703-2.96 1.59-4.195 1.789.316 4.515-.059 7.547-2.098 4-2.695 3.636-7.414 1.933-8.742-.527-.41-1.343-.957-3.87-1.098.03-.41.05-.832.05-1.261 0-1.137-.164-2.196-.434-3.176.215-.09.438-.176.668-.266 2.61-1.008 3.352-1.152 3.457-1.293.106-.136.141-1.273.09-1.324-.035-.035-2.777-.48-5.851-.738-1.13-1.742-2.453-2.942-3.254-3.485-1.281-.863-2.09-1.44-3.664-2.296a65.612 65.612 0 0 0 3.41-2 28.22 28.22 0 0 0 2.914-2.082c2.629 1.293 4.71 2.648 6.023 3.675 1.668 1.301 8.578 6.91 8.578 16.711 0 11.762-10.097 21.293-22.554 21.293Zm-5.7-42.71c2.231-.938 5.7-2.426 5.7-2.426s3.472 1.488 5.699 2.425c.36.153.703.309 1.047.461a31.39 31.39 0 0 1-4.707 2.809c-.781.375-1.45.703-2.035.996-.586-.293-1.254-.621-2.035-.996a31.39 31.39 0 0 1-4.707-2.809c.34-.156.683-.308 1.039-.46Zm25.493 9.347c-2.063-3.156-5.008-5.945-8.582-8.11a27.245 27.245 0 0 0-2.192-1.16c.86-.836 1.13-1.32 1.13-1.32l.284-1.98c-.504.914-1.421 1.87-2.523 2.785-2.117-.957-4.543-1.93-6.426-2.719 2.426-1.371 3.274-2.453 3.274-2.453l.011-1.2c-2.683 2.231-4.77 3.048-4.77 3.048s-2.081-.817-4.769-3.047l.016 1.199s.848 1.082 3.27 2.453c-1.88.79-4.301 1.758-6.419 2.719-1.101-.914-2.02-1.871-2.523-2.785l.285 1.98s.27.484 1.13 1.32c-.837.399-1.59.79-2.196 1.16-3.574 2.165-6.52 4.954-8.582 8.11-2.059 3.152-3.239 6.375-3.239 11.637 0 12.52 10.313 22.668 23.028 22.668 12.719 0 23.027-10.149 23.027-22.668 0-5.262-1.176-8.485-3.234-11.637ZM148.465-18.57l1.226.875.348-1.364-1.207-.878Zm15.105-20.578-.238 1.566c.848.598 2.23 2.293 2.23 5.07 0 .98-.144 1.84-.144 1.84l.2.04s.35-1.723.35-2.766.118-3.91-2.398-5.75Zm-18.836 20.09.348 1.363 1.227-.875-.364-1.367Zm-15.523-13.454c0-2.777 1.383-4.472 2.23-5.07l-.234-1.566c-2.516 1.84-2.398 4.707-2.398 5.75 0 1.043.351 2.765.351 2.765l.195-.039s-.144-.86-.144-1.84Zm45.168 9.215v.004c-.492 1.79-1.188 5.406-.758 7.93-2.398.886-5.187 3.297-6.488 4.62-1.32 1.302-3.735 4.087-4.621 6.49-2.524-.434-6.14.26-7.93.757-1.797.465-5.277 1.672-7.246 3.308-1.969-1.636-5.453-2.843-7.246-3.308-1.79-.496-5.41-1.192-7.93-.758-.89-2.402-3.3-5.187-4.625-6.488-1.3-1.324-4.086-3.735-6.488-4.621.433-2.524-.262-6.14-.758-7.93v-.004c-.465-1.793-1.672-5.277-3.309-7.246 1.637-1.969 2.844-5.45 3.31-7.246.495-1.79 1.19-5.406.757-7.93 2.402-.886 5.187-3.3 6.488-4.62 1.324-1.302 3.735-4.087 4.625-6.49 2.52.434 6.14-.265 7.93-.757 1.793-.469 5.277-1.672 7.246-3.309 1.969 1.637 5.45 2.84 7.246 3.31 1.79.491 5.406 1.19 7.93.757.886 2.402 3.3 5.187 4.62 6.488 1.302 1.32 4.09 3.735 6.49 4.621-.43 2.524.265 6.14.757 7.93.469 1.797 1.676 5.277 3.312 7.246-1.636 1.969-2.843 5.453-3.312 7.246Zm9.516-10.14c-.59 0-1.043.328-1.043.328s.183-.309.183-.77c0-.363-.328-1.422-1.383-1.422-.226 0-.328.043-.312.133.015.098.351.246.351.766 0 .523-.324.824-.546 1.058-.223.235-.637.625-.536 1.758a2.29 2.29 0 0 1-1.773-.937c-1.23-1.711-2.234-4.723-2.559-5.774-.246-1.074-.879-4.18-.672-6.277a2.299 2.299 0 0 1 1.067-1.703c.48 1.035 1.035 1.168 1.344 1.257.308.094.742.192 1.004.641.261.453.042.746.078.84.03.086.14.074.336-.04.914-.526.671-1.605.488-1.921-.23-.402-.543-.578-.543-.578s.555.058 1.066-.238c1.293-.746.727-1.829 1.489-4.2-2.438-.53-3.09-1.558-4.383-.812a1.935 1.935 0 0 0-.738.805s0-.36-.231-.758c-.18-.317-.992-1.07-1.906-.54-.2.114-.262.2-.203.27.062.078.425.035.687.489.262.453.13.874.055 1.187-.074.316-.238.86.414 1.793-.418.242-1.219.426-2.004.074-1.922-.867-4.297-2.972-5.102-3.722-.75-.805-2.855-3.18-3.722-5.102-.352-.785-.168-1.586.074-2.004.934.652 1.477.492 1.793.418.312-.074.738-.207 1.187.05.454.263.41.626.489.688.07.059.156-.004.27-.203.53-.914-.223-1.722-.54-1.906-.398-.23-.758-.23-.758-.23s.512-.227.805-.739c.746-1.293-.281-1.945-.809-4.383-2.375.762-3.457.196-4.203 1.489-.297.511-.238 1.07-.238 1.07s-.176-.313-.578-.547c-.316-.18-1.39-.426-1.922.488-.113.196-.125.305-.039.336.094.035.387-.18.84.078.45.262.547.696.64 1.004.09.309.223.864 1.258 1.344-.242.418-.847.98-1.699 1.066-2.101.211-5.207-.425-6.281-.671-1.05-.325-4.063-1.328-5.774-2.559-.695-.504-.937-1.289-.937-1.773 1.133.101 1.523-.313 1.758-.536.238-.222.535-.546 1.058-.546.52 0 .668.335.766.351.09.016.133-.086.133-.312 0-1.055-1.055-1.383-1.422-1.383-.461 0-.77.183-.77.183s.328-.453.328-1.043c0-1.492-1.218-1.546-2.894-3.39-1.676 1.844-2.895 1.898-2.895 3.39 0 .59.329 1.043.329 1.043s-.31-.183-.774-.183c-.363 0-1.422.328-1.422 1.383 0 .226.047.328.137.312.098-.016.242-.351.766-.351.52 0 .82.324 1.054.546.235.223.625.637 1.762.536 0 .484-.242 1.27-.941 1.773-1.711 1.23-4.72 2.234-5.774 2.559-1.07.246-4.18.882-6.277.672a2.29 2.29 0 0 1-1.7-1.067c1.032-.48 1.165-1.035 1.258-1.344.09-.308.188-.742.641-1.004.45-.257.746-.043.836-.078.086-.03.074-.14-.04-.336-.526-.914-1.605-.668-1.921-.488-.398.234-.578.547-.578.547s.062-.559-.234-1.07c-.747-1.293-1.829-.727-4.204-1.489-.527 2.438-1.558 3.09-.812 4.383.297.512.808.738.808.738s-.359 0-.761.23c-.317.18-1.067.993-.54 1.907.114.2.204.262.274.203.074-.062.035-.425.484-.687.454-.258.876-.125 1.192-.051.312.074.86.234 1.789-.418.242.418.43 1.219.074 2.004-.867 1.922-2.972 4.297-3.719 5.102-.808.75-3.18 2.855-5.105 3.722-.781.352-1.586.168-2.004-.074.656-.934.492-1.477.418-1.793-.074-.313-.207-.734.055-1.188.261-.453.625-.41.687-.488.059-.07-.008-.156-.203-.27-.918-.53-1.726.223-1.91.54-.23.398-.227.758-.227.758s-.226-.512-.738-.805c-1.293-.746-1.95.281-4.383.812.758 2.371.196 3.453 1.489 4.2.511.296 1.066.238 1.066.238s-.313.176-.543.578c-.184.316-.43 1.395.484 1.922.2.113.309.125.34.039.035-.094-.183-.387.078-.84.258-.45.692-.547 1-.64.309-.09.864-.223 1.344-1.258.418.242.98.847 1.067 1.703.21 2.097-.426 5.203-.672 6.277-.325 1.05-1.325 4.063-2.559 5.774-.5.699-1.289.937-1.773.937.101-1.133-.313-1.523-.532-1.758-.222-.234-.55-.535-.55-1.058 0-.52.335-.668.355-.766.016-.09-.086-.133-.316-.133-1.055 0-1.38 1.059-1.38 1.422 0 .461.18.77.18.77s-.449-.328-1.043-.328c-1.492 0-1.543 1.222-3.39 2.894 1.847 1.676 1.898 2.895 3.39 2.895.594 0 1.043-.329 1.043-.329s-.18.309-.18.774c0 .363.325 1.422 1.38 1.422.23 0 .332-.047.316-.137-.02-.094-.355-.242-.355-.766 0-.52.328-.82.55-1.054.22-.235.633-.625.532-1.762.484 0 1.273.242 1.773.941 1.234 1.711 2.234 4.723 2.559 5.774.246 1.07.882 4.18.671 6.277-.085.856-.648 1.461-1.066 1.7-.48-1.032-1.035-1.165-1.344-1.258-.308-.09-.742-.188-1-.641-.261-.45-.043-.746-.078-.836-.031-.086-.14-.074-.34.04-.914.526-.668 1.605-.484 1.921.23.402.543.578.543.578s-.555-.059-1.066.234c-1.293.747-.73 1.829-1.489 4.204 2.434.527 3.09 1.558 4.383.812.512-.297.738-.809.738-.809s-.004.36.227.762c.184.317.992 1.067 1.91.54.195-.114.262-.204.203-.274-.062-.074-.426-.035-.687-.485-.262-.453-.13-.875-.055-1.187.074-.316.238-.863-.418-1.793.418-.242 1.223-.426 2.004-.074 1.926.867 4.297 2.972 5.105 3.722.747.805 2.852 3.176 3.72 5.102a2.277 2.277 0 0 1-.075 2.004c-.93-.652-1.477-.492-1.79-.418-.315.074-.737.207-1.19-.055-.45-.258-.41-.625-.485-.687-.07-.059-.16.008-.273.207-.528.914.222 1.722.539 1.906.402.23.761.227.761.227s-.511.226-.808.738c-.746 1.297.285 1.95.812 4.387 2.375-.762 3.457-.2 4.204-1.493.296-.511.234-1.066.234-1.066s.18.313.578.543c.316.184 1.395.43 1.922-.484.113-.2.125-.305.039-.34-.09-.032-.387.183-.836-.078-.453-.258-.55-.692-.64-1-.094-.309-.227-.864-1.258-1.344A2.29 2.29 0 0 1 133.3-2.27c2.097-.21 5.207.426 6.277.672 1.055.325 4.063 1.325 5.774 2.559.699.5.941 1.289.941 1.773-1.137-.101-1.527.313-1.762.536-.234.218-.535.546-1.054.546-.524 0-.668-.336-.766-.351-.09-.016-.137.082-.137.312 0 1.055 1.059 1.383 1.422 1.383.465 0 .774-.183.774-.183s-.329.453-.329 1.043c0 1.492 1.22 1.546 2.895 3.39 1.676-1.844 2.894-1.898 2.894-3.39 0-.59-.328-1.043-.328-1.043s.309.183.77.183c.367 0 1.422-.328 1.422-1.383 0-.23-.043-.328-.133-.312-.098.015-.246.351-.766.351-.523 0-.82-.328-1.058-.546-.235-.223-.625-.637-1.758-.536 0-.484.242-1.273.937-1.773 1.711-1.234 4.723-2.234 5.774-2.559 1.074-.246 4.18-.882 6.281-.672a2.298 2.298 0 0 1 1.7 1.067c-1.036.48-1.169 1.035-1.258 1.344-.094.308-.192.742-.641 1-.453.261-.746.046-.84.078-.086.035-.074.14.04.34.53.914 1.605.668 1.921.484.402-.23.578-.543.578-.543s-.059.555.238 1.066c.746 1.293 1.828.73 4.203 1.493.528-2.438 1.555-3.09.81-4.387a1.935 1.935 0 0 0-.806-.738s.36.004.758-.227c.317-.184 1.07-.992.54-1.906-.114-.2-.2-.266-.27-.207-.078.062-.035.43-.489.687-.449.262-.875.13-1.187.055-.316-.074-.86-.234-1.793.418-.242-.418-.426-1.223-.074-2.004.867-1.926 2.972-4.297 3.722-5.102.805-.75 3.18-2.855 5.102-3.722.785-.352 1.586-.168 2.004.074-.652.93-.488 1.477-.414 1.793.074.312.207.734-.055 1.187-.262.45-.625.41-.687.485-.059.07.004.16.203.273.914.528 1.726-.222 1.906-.539.234-.402.23-.761.23-.761s.227.511.739.808c1.293.746 1.945-.285 4.383-.812-.762-2.375-.196-3.457-1.489-4.204-.511-.293-1.066-.234-1.066-.234s.312-.176.543-.578c.183-.316.426-1.395-.488-1.922-.196-.113-.305-.125-.336-.039-.036.09.183.387-.078.836-.262.453-.696.55-1.004.64-.309.094-.864.227-1.344 1.258-.418-.238-.98-.843-1.067-1.699-.207-2.097.426-5.207.672-6.277.325-1.05 1.328-4.063 2.559-5.774.504-.699 1.293-.941 1.773-.941-.101 1.137.313 1.527.536 1.762.222.234.546.535.546 1.054 0 .524-.336.672-.351.766-.016.09.086.137.312.137 1.055 0 1.383-1.059 1.383-1.422 0-.465-.183-.774-.183-.774s.453.329 1.043.329c1.492 0 1.546-1.22 3.39-2.895-1.844-1.672-1.898-2.895-3.39-2.895Zm25.972 64.566-.137.508a11.89 11.89 0 0 0-.128.484 12.267 12.267 0 0 0-.367 1.676h-9.77v-.54c.25 0 .476-.019.683-.066.204-.043.38-.12.524-.238.144-.117.254-.285.332-.496.078-.215.113-.496.113-.844v-8.8c0-.31-.035-.551-.113-.731a.835.835 0 0 0-.324-.398 1.217 1.217 0 0 0-.524-.164 5.415 5.415 0 0 0-.691-.04v-.44h8.847l.06 2.585-.321.04c-.063-.747-.34-1.278-.824-1.602-.489-.325-1.114-.485-1.868-.485h-2.547v5.23h2.797c.29 0 .516-.05.688-.148a.986.986 0 0 0 .375-.375 1.63 1.63 0 0 0 .16-.5c.023-.183.035-.363.035-.535h.414v3.96h-.414c0-.25-.008-.48-.027-.69-.02-.211-.078-.391-.176-.536a.944.944 0 0 0-.453-.332c-.203-.074-.488-.113-.852-.113h-2.547v4.023c0 .383.055.684.168.907.11.226.262.394.458.511.19.114.414.196.667.235.254.043.524.062.813.062.172 0 .406-.004.7-.007.296-.008.6-.02.921-.04.316-.023.613-.05.899-.085.28-.04.492-.09.632-.157.38-.195.676-.457.887-.785.211-.332.41-.707.594-1.129Zm-20.558-2.746h4.546v.394c-.21 0-.394.012-.55.035-.16.028-.293.07-.407.137a.556.556 0 0 0-.242.313 1.658 1.658 0 0 0-.078.57v3.328a13.95 13.95 0 0 1-1.558.457c-.512.117-.997.211-1.45.274-.449.062-.855.113-1.21.14-.356.028-.63.043-.82.043-1.142 0-2.134-.203-2.977-.61-.844-.41-1.547-.929-2.11-1.57a6.393 6.393 0 0 1-1.262-2.128c-.273-.782-.414-1.543-.414-2.29 0-.878.176-1.722.524-2.53a6.736 6.736 0 0 1 1.457-2.141 7.091 7.091 0 0 1 2.238-1.477c.867-.367 1.82-.555 2.86-.555.511 0 1 .036 1.457.102a15.162 15.162 0 0 1 2.39.55c.332.106.625.208.875.302l.258 2.5h-.336a6.944 6.944 0 0 0-.254-.88c-.117-.335-.375-.667-.773-.995a4.137 4.137 0 0 0-1.543-.801 6.484 6.484 0 0 0-1.766-.238c-.789 0-1.516.14-2.184.414a5.093 5.093 0 0 0-1.73 1.168 5.254 5.254 0 0 0-1.137 1.82c-.265.707-.402 1.496-.402 2.367 0 .918.144 1.77.434 2.559.289.789.687 1.472 1.19 2.047a5.486 5.486 0 0 0 1.786 1.355 5.03 5.03 0 0 0 2.207.492c.262 0 .621-.043 1.082-.125.457-.082.95-.281 1.477-.597v-2.68c0-.328-.035-.582-.102-.758a.926.926 0 0 0-.285-.402.914.914 0 0 0-.48-.168c-.2-.02-.438-.028-.711-.028Zm-21.95-.055 1.817-5.52 1.902 5.52Zm7.703 4.98c-.148-.066-.296-.195-.44-.394a3.98 3.98 0 0 1-.43-.816 31.889 31.889 0 0 1-.516-1.348l-3.617-10.277-1.344 1.035v.137c0 .261-.02.52-.059.77-.039.25-.11.503-.21.769l-2.837 7.875c-.187.511-.363.921-.523 1.23a3.098 3.098 0 0 1-.492.711 1.186 1.186 0 0 1-.543.328c-.2.05-.43.074-.692.074v.395h4.336v-.395h-.75c-.289 0-.511-.066-.668-.207-.16-.136-.238-.324-.238-.558 0-.078.008-.164.02-.266.015-.098.039-.203.078-.32l.992-2.992h4.21l1.126 3.144c.023.04.047.11.066.207.02.102.028.2.028.305 0 .234-.067.41-.207.52-.137.113-.325.167-.563.167h-.547v.395h4.762v-.395h-.375c-.227 0-.414-.03-.566-.093ZM154.685 21.04h4v.395c-.25 0-.457.03-.621.093a.804.804 0 0 0-.395.356c-.098.172-.172.414-.215.719-.047.308-.066.71-.066 1.21v5.754c0 .895-.16 1.633-.477 2.211a3.956 3.956 0 0 1-1.203 1.38c-.484.335-1.02.57-1.61.702-.59.133-1.152.2-1.69.2a6.884 6.884 0 0 1-1.962-.262 4.283 4.283 0 0 1-1.547-.8c-.43-.36-.77-.829-1.011-1.403-.246-.57-.367-1.266-.367-2.086v-6.781c0-.313-.028-.555-.083-.723a.76.76 0 0 0-.246-.383.79.79 0 0 0-.41-.16 5.08 5.08 0 0 0-.578-.027v-.395h4.461v.395c-.238 0-.45.011-.629.035a.827.827 0 0 0-.453.207c-.117.113-.21.285-.273.515-.063.23-.098.54-.098.93v5.996c0 .586.078 1.14.226 1.656.153.52.38.97.688 1.356.309.383.703.687 1.184.91.48.223 1.054.336 1.722.336 1.203 0 2.082-.332 2.637-.992.555-.664.832-1.57.832-2.719v-5.23c0-.747-.016-1.325-.05-1.73-.036-.407-.118-.704-.243-.892a.745.745 0 0 0-.547-.332 7.99 7.99 0 0 0-.976-.046Zm-16.7 9.07c-.214.688-.511 1.282-.89 1.778-.383.496-.848.89-1.399 1.175-.55.29-1.16.434-1.828.434-.75 0-1.433-.184-2.047-.559a5.251 5.251 0 0 1-1.582-1.472 7.131 7.131 0 0 1-1.023-2.113 8.214 8.214 0 0 1-.14-4.352c.148-.66.405-1.27.765-1.82.36-.551.832-1.008 1.418-1.364.586-.359 1.312-.539 2.176-.539.726 0 1.39.184 1.992.559a5.087 5.087 0 0 1 1.531 1.473c.422.613.75 1.316.988 2.113.239.793.356 1.61.356 2.45 0 .8-.106 1.546-.317 2.237Zm.274-7.476a6.684 6.684 0 0 0-2.121-1.39 6.568 6.568 0 0 0-2.547-.505c-.88 0-1.723.168-2.531.504a6.79 6.79 0 0 0-2.125 1.39 6.84 6.84 0 0 0-1.465 2.087 6.137 6.137 0 0 0-.555 2.613c0 .828.152 1.645.453 2.445a6.5 6.5 0 0 0 1.332 2.149 6.69 6.69 0 0 0 2.14 1.527c.84.387 1.798.582 2.876.582.789 0 1.566-.16 2.34-.484a7.119 7.119 0 0 0 2.097-1.352 6.572 6.572 0 0 0 1.504-2.097c.38-.82.567-1.735.567-2.75 0-.942-.176-1.817-.528-2.625a6.622 6.622 0 0 0-1.437-2.094Zm-17.832 10.73c.246.028.511.04.797.04v.394h-5.625v-.395a4.8 4.8 0 0 0 .886-.066c.239-.043.434-.133.582-.266.153-.129.258-.32.32-.57.067-.25.098-.578.098-.992l-.117-8.23h-.039l-5.3 10.519h-.376c-.117-.29-.218-.547-.312-.777-.094-.23-.192-.465-.29-.7-.1-.23-.21-.484-.335-.754-.13-.27-.266-.582-.422-.941l-3.23-7.125-.532 8.191c-.004.09-.008.176-.008.262 0 .266.032.492.094.672.086.23.207.402.363.516.157.109.344.183.563.214.219.032.457.047.719.047v.395h-4.723v-.395c.266 0 .52-.02.77-.058.25-.035.48-.133.683-.282.207-.152.375-.378.516-.683.137-.305.23-.715.281-1.234l.629-7.118c.027-.3.047-.547.062-.734.02-.188.028-.32.028-.39 0-.325-.035-.587-.102-.782a.94.94 0 0 0-.308-.453 1.083 1.083 0 0 0-.543-.2 7.643 7.643 0 0 0-.79-.034v-.395h3.098c.215.5.383.89.508 1.172.125.281.227.52.3.707.079.187.157.363.231.52.07.156.16.355.262.59l3.352 7.445 3.949-7.782c.172-.34.316-.628.43-.863.117-.238.218-.453.304-.648.09-.2.168-.38.239-.551.07-.168.144-.367.23-.59h3.121v.395c-.184 0-.375.007-.57.027-.196.02-.371.074-.528.16a.896.896 0 0 0-.375.395c-.093.175-.14.425-.14.754v8.414c.011.55.07.976.176 1.277.105.3.25.52.433.66.184.137.399.219.64.242Zm-31.617-5.035 1.82-5.52 1.902 5.52Zm7.707 4.98c-.149-.066-.297-.195-.442-.394a4.17 4.17 0 0 1-.433-.816 27.798 27.798 0 0 1-.512-1.348l-3.617-10.277-1.348 1.035v.137c0 .261-.02.52-.055.77-.039.25-.109.503-.214.769l-2.836 7.875c-.184.511-.36.921-.524 1.23a3.098 3.098 0 0 1-.488.711 1.206 1.206 0 0 1-.543.328c-.2.05-.43.074-.695.074v.395h4.34v-.395h-.75c-.29 0-.512-.066-.672-.207a.706.706 0 0 1-.235-.558c0-.078.008-.164.02-.266a1.65 1.65 0 0 1 .078-.32l.988-2.992h4.215l1.121 3.144c.027.04.05.11.07.207.02.102.028.2.028.305 0 .234-.07.41-.207.52-.137.113-.325.167-.563.167h-.547v.395h4.758v-.395h-.375c-.223 0-.41-.03-.562-.093"/></g></svg>