<svg xmlns="http://www.w3.org/2000/svg" width="350" height="70" version="1.0" viewBox="0 0 262.5 52.5"><defs><clipPath id="a"><path d="M77.48 10h106.98v37H77.48Zm0 0"/></clipPath><clipPath id="b"><path d="M124 43.523h14.484v5.122H124Zm0 0"/></clipPath></defs><path fill="#121009" fill-rule="evenodd" d="M108.46 16.906h-5.632v-2.812h5.633c1.52 0 1.55.27 2.816.562v1.688c-1.265.293-1.297.562-2.816.562Zm3.942 1.688c1.426-.383 2.817-1.086 2.817-2.813v-1.125c0-1.793-2.867-3.937-5.07-3.937H98.886V24.78h3.941v-4.5h5.07c1.727 0 3.7 3.024 5.067 3.938h3.941ZM159.145 24.219l.636-2.809-12.46-.004v-2.25h11.265v-2.812h-11.828V13.53h12.387v-2.25h-15.77V24.22ZM137.184 24.219l.636-2.809-12.465-.004v-2.25h11.262v-2.812h-11.824V13.53h12.39v-2.25h-15.769V24.22Zm0 0"/><g clip-path="url(#a)"><path fill="#121009" fill-rule="evenodd" d="M179.418 11.281H165.34V24.22h3.379V14.094h7.32c2.059 0 4.504 1.554 4.504 3.375v1.125c0 6.008-17.016 8.234-22.586 10.062-2.805.922-24.379 6.246-26.406 6.246-4.813 0-21.485-5.007-27.067-6.148-5.59-1.14-23.058-4.89-23.058-10.16v-1.125c0-1.82 2.449-3.375 4.508-3.375h1.687c3.145 0 3.738 2.156 6.2 2.812v-2.812c0-1.766-3.915-3.375-5.633-3.375H85.37c-4.719 0-7.887 2.543-7.887 7.312v.563c0 7.633 13.868 9.535 20.614 11.472 9.351 2.688 18.937 4.063 28.261 6.524l-40.507 9.219c10.136.343 16.476-.157 24.195-2.57 2.59-.81 19.219-5.278 21.004-5.391 1.894-.121 17.84 4.468 21.562 5.27 9.692 2.073 11.04 3.034 23.426 3.034l-40.152-9.734c9.52-1.996 18.879-4.508 28.37-6.531 7.677-1.637 20.231-3.672 20.231-12.418V15.78c0-2-3.238-4.074-5.07-4.5Zm0 0"/></g><g clip-path="url(#b)"><path fill="#121009" fill-rule="evenodd" d="M126.219 48.54h-.942v-3.548a3.2 3.2 0 0 1-1.215.715v-.855c.247-.079.512-.23.801-.457a1.73 1.73 0 0 0 .594-.786h.762Zm1.41-3.97v-.875h3.223v.684c-.266.262-.536.637-.813 1.129a6.489 6.489 0 0 0-.629 1.554c-.144.555-.215 1.043-.215 1.477h-.906c.016-.68.156-1.371.422-2.074a6.89 6.89 0 0 1 1.059-1.895Zm7.012.262-.914.102c-.02-.188-.079-.325-.172-.414a.508.508 0 0 0-.368-.137c-.199 0-.367.09-.503.27-.137.179-.223.55-.262 1.113.238-.274.527-.414.875-.414.394 0 .734.148 1.012.449.28.297.421.683.421 1.156 0 .504-.148.906-.44 1.211-.294.305-.677.457-1.138.457-.496 0-.906-.195-1.226-.578-.317-.387-.477-1.016-.477-1.895 0-.898.164-1.547.5-1.945.332-.398.766-.598 1.297-.598.371 0 .68.106.926.313.246.21.402.512.469.91Zm-2.137 2.055c0 .304.07.539.21.707.141.168.302.25.485.25.172 0 .32-.067.434-.203.117-.137.176-.364.176-.672 0-.32-.063-.551-.188-.703a.588.588 0 0 0-.469-.223.583.583 0 0 0-.46.215c-.126.14-.188.351-.188.629Zm4.355-3.278c.477 0 .848.172 1.118.512.32.399.48 1.066.48 1.996 0 .93-.164 1.598-.484 2.004-.266.336-.637.504-1.114.504-.476 0-.863-.184-1.152-.55-.297-.372-.441-1.024-.441-1.966 0-.925.16-1.59.48-1.996.266-.336.637-.504 1.113-.504Zm0 .782a.471.471 0 0 0-.304.109c-.09.074-.16.203-.207.39-.067.243-.098.653-.098 1.227 0 .578.027.973.086 1.188.059.218.133.36.223.43.09.074.187.109.3.109a.464.464 0 0 0 .305-.11c.09-.074.16-.203.211-.39.063-.242.094-.649.094-1.227 0-.574-.028-.969-.086-1.183-.055-.22-.13-.36-.219-.434a.464.464 0 0 0-.305-.11Zm0 0"/></g></svg>